<?xml version="1.0" encoding="utf-8"?>
<!-- Generator: Adobe Illustrator 22.0.0, SVG Export Plug-In . SVG Version: 6.00 Build 0)  -->
<svg version="1.1" id="Layer_1" xmlns="http://www.w3.org/2000/svg" xmlns:xlink="http://www.w3.org/1999/xlink" x="0px" y="0px"
	 viewBox="0 0 200 200" style="enable-background:new 0 0 200 200;" xml:space="preserve">
<style type="text/css">
	.st0{fill:#FC246C;}
</style>
<g>
	<path d="M139.1,44H60.9c-5.5,0-9.9,4.5-9.9,9.9v78.1c0,5.5,4.5,9.9,9.9,9.9h78.1c5.5,0,9.9-4.5,9.9-9.9V53.9
		C149,48.5,144.5,44,139.1,44z M141.2,125c0,5.1-4.1,9.2-9.2,9.2H68c-5.1,0-9.2-4.1-9.2-9.2V61c0-5.1,4.1-9.2,9.2-9.2h64
		c5.1,0,9.2,4.1,9.2,9.2V125z"/>
</g>
<path class="st0" d="M136.8,50H63.2c-3.4,0-6.2,2.8-6.2,6.2v73.6c0,3.4,2.8,6.2,6.2,6.2h73.6c3.4,0,6.2-2.8,6.2-6.2V56.2
	C143,52.8,140.2,50,136.8,50z M136.1,123.6c0,3-2.5,5.5-5.5,5.5H69.4c-3,0-5.5-2.5-5.5-5.5V62.4c0-3,2.5-5.5,5.5-5.5h61.2
	c3,0,5.5,2.5,5.5,5.5V123.6z"/>
<path class="st0" d="M100.9,73.2c-10.4,0-18.9,8.5-18.9,18.9s8.5,18.9,18.9,18.9s18.9-8.5,18.9-18.9S111.3,73.2,100.9,73.2z
	 M100.9,101.6c-5.2,0-9.5-4.2-9.5-9.5c0-5.2,4.2-9.5,9.5-9.5s9.5,4.2,9.5,9.5C110.3,97.4,106.1,101.6,100.9,101.6z"/>
<g>
	<polygon points="70.8,63.8 70.8,75.8 74,75.8 74,67 82.8,67 82.8,63.8 	"/>
</g>
<g>
	<polygon points="131,63.8 131,75.8 127.7,75.8 127.7,67 118.9,67 118.9,63.8 	"/>
</g>
<g>
	<polygon points="131,124 131,111.9 127.7,111.9 127.7,120.7 118.9,120.7 118.9,124 	"/>
</g>
<g>
	<polygon points="70.8,124 70.8,111.9 74,111.9 74,120.7 82.8,120.7 82.8,124 	"/>
</g>
</svg>
